<svg xmlns="http://www.w3.org/2000/svg" viewBox="0 0 220 240" role="img" aria-labelledby="title desc">
  <title id="title">彼岸花贴纸</title>
  <desc id="desc">红粉渐变的现代彼岸花线稿贴纸</desc>
  <defs>
    <linearGradient id="petal" x1="0" y1="0" x2="1" y2="1">
      <stop offset="0" stop-color="#ff6b96"/>
      <stop offset="0.55" stop-color="#e52e62"/>
      <stop offset="1" stop-color="#902e8d"/>
    </linearGradient>
    <filter id="shadow" x="-30%" y="-20%" width="160%" height="150%">
      <feDropShadow dx="0" dy="6" stdDeviation="5" flood-color="#3a1533" flood-opacity=".28"/>
    </filter>
  </defs>
  <g filter="url(#shadow)" fill="none" stroke="#fff" stroke-width="14" stroke-linecap="round" stroke-linejoin="round">
    <path d="M109 211c2-45 2-79-1-111"/>
    <path d="M108 112C88 80 56 72 33 91c27-5 46 7 57 31-29-20-58-11-68 14 24-12 48-5 65 16"/>
    <path d="M111 111c18-34 49-45 74-28-28-2-47 12-56 37 28-22 58-16 70 8-25-10-48-1-63 22"/>
    <path d="M108 108C93 74 99 45 122 28c-8 27 2 48 21 65-5-30 12-53 38-57-20 17-25 42-13 67"/>
    <path d="M107 108C91 75 67 58 40 65c25 8 40 27 43 54M112 108c15-34 38-52 66-47-24 10-38 30-39 57"/>
  </g>
  <g fill="none" stroke="url(#petal)" stroke-width="6" stroke-linecap="round" stroke-linejoin="round">
    <path d="M109 211c2-45 2-79-1-111"/>
    <path d="M108 112C88 80 56 72 33 91c27-5 46 7 57 31-29-20-58-11-68 14 24-12 48-5 65 16"/>
    <path d="M111 111c18-34 49-45 74-28-28-2-47 12-56 37 28-22 58-16 70 8-25-10-48-1-63 22"/>
    <path d="M108 108C93 74 99 45 122 28c-8 27 2 48 21 65-5-30 12-53 38-57-20 17-25 42-13 67"/>
    <path d="M107 108C91 75 67 58 40 65c25 8 40 27 43 54M112 108c15-34 38-52 66-47-24 10-38 30-39 57"/>
  </g>
  <g fill="#ffcfdf" stroke="#fff" stroke-width="3">
    <circle cx="23" cy="136" r="5"/><circle cx="199" cy="128" r="5"/><circle cx="181" cy="36" r="5"/><circle cx="40" cy="65" r="5"/>
  </g>
</svg>
